<svg t="1708692065488" class="icon" viewBox="0 0 1024 1024" version="1.1" xmlns="http://www.w3.org/2000/svg" p-id="5248" width="32" height="32">
<path d="M153.6 310.992593H644.740741c30.340741 6.637037 60.681481 14.222222 91.97037 20.859259l3.792593 19.911111 31.288889 0.948148c6.637037 0 11.377778 1.896296 15.17037 4.740741 3.792593 3.792593 5.688889 7.585185 5.688889 14.222222v25.6h1.896296c4.740741 0 8.533333 3.792593 8.533333 8.533333v41.718519c0 4.740741-3.792593 8.533333-8.533333 8.533333h-1.896296v24.651852l92.918518 8.533333c11.377778 0.948148 17.066667 7.585185 18.014815 20.85926v79.644444H919.703704v60.681482l-57.837037 10.429629-8.533334-69.214815c-1.896296-15.17037-12.325926-28.444444-28.444444-28.444444H729.125926c-15.17037 0-25.6 12.325926-28.444445 28.444444l-3.792592 37.925926v59.733334h-9.481482v-36.977778h-341.333333l-8.533333-59.733333c-1.896296-15.17037-12.325926-28.444444-28.444445-28.444445h-94.814815c-15.17037 0-25.6 12.325926-28.444444 28.444445l-7.585185 54.044444v43.614815h-9.481482v-36.977778h-0.948148c-22.755556-6.637037-46.459259-14.222222-69.214815-20.859259v-265.481482h613.451852v-5.688889H98.607407c0-33.185185 21.807407-47.407407 54.992593-50.251851z m457.007407 73.955555c-6.637037 0-12.325926 5.688889-12.325926 12.325926v68.266667c0 6.637037 5.688889 12.325926 12.325926 12.325926h48.355556c6.637037 0 12.325926-5.688889 12.325926-12.325926v-68.266667c0-6.637037-5.688889-12.325926-12.325926-12.325926h-48.355556z m74.903704-3.792592h-6.637037v242.725925h-89.125926V381.155556h-6.637037v249.362963H683.614815v-43.614815l6.637037-27.496297c1.896296-5.688889 4.740741-9.481481 8.533333-12.325926 3.792593-2.844444 9.481481-5.688889 15.170371-6.637037h159.288888v72.05926h8.533334v-26.548148h9.481481v-36.977778h-9.481481v-14.222222H716.8c-7.585185 0.948148-13.274074 3.792593-18.962963 7.585185-4.740741 3.792593-8.533333 9.481481-10.42963 15.17037l-0.948148 4.740741V381.155556h-0.948148zM512 379.259259c-7.585185 0-13.274074 5.688889-13.274074 13.274074V464.592593c0 7.585185 5.688889 13.274074 13.274074 13.274074h51.2c7.585185 0 13.274074-5.688889 13.274074-13.274074v-72.05926c0-7.585185-5.688889-13.274074-13.274074-13.274074H512z m-360.296296 0c-7.585185 0-13.274074 5.688889-13.274074 13.274074V464.592593c0 7.585185 5.688889 13.274074 13.274074 13.274074h51.2c7.585185 0 13.274074-5.688889 13.274074-13.274074v-72.05926c0-7.585185-5.688889-13.274074-13.274074-13.274074H151.703704z m91.022222 0c-7.585185 0-13.274074 5.688889-13.274074 13.274074V464.592593c0 7.585185 5.688889 13.274074 13.274074 13.274074H293.925926c7.585185 0 13.274074-5.688889 13.274074-13.274074v-72.05926c0-7.585185-5.688889-13.274074-13.274074-13.274074h-51.2z m90.074074 0c-7.585185 0-13.274074 5.688889-13.274074 13.274074V464.592593c0 7.585185 5.688889 13.274074 13.274074 13.274074h51.2c7.585185 0 13.274074-5.688889 13.274074-13.274074v-72.05926c0-7.585185-5.688889-13.274074-13.274074-13.274074h-51.2z m90.074074 0c-7.585185 0-13.274074 5.688889-13.274074 13.274074V464.592593c0 7.585185 5.688889 13.274074 13.274074 13.274074H474.074074c7.585185 0 13.274074-5.688889 13.274074-13.274074v-72.05926c0-7.585185-5.688889-13.274074-13.274074-13.274074h-51.2z m319.525926-17.066666l1.896296 9.481481-1.896296 3.792593 30.340741 105.244444 9.481481 0.948148v-23.703703h-3.792592c-4.740741 0-8.533333-3.792593-8.533334-8.533334V407.703704c0-4.740741 3.792593-8.533333 8.533334-8.533334h3.792592v-25.6c0-2.844444-0.948148-5.688889-2.844444-6.637037-1.896296-1.896296-3.792593-1.896296-7.585185-1.896296l-29.392593-2.844444zM261.688889 579.318519c-18.962963 0-36.02963 7.585185-48.355556 19.911111-12.325926 12.325926-19.911111 29.392593-19.911111 48.355555 0 18.962963 7.585185 36.02963 19.911111 48.355556 12.325926 12.325926 29.392593 19.911111 48.355556 19.911111 18.962963 0 36.02963-7.585185 48.355555-19.911111 12.325926-12.325926 19.911111-29.392593 19.911112-48.355556 0-18.962963-7.585185-36.02963-19.911112-48.355555-12.325926-12.325926-29.392593-19.911111-48.355555-19.911111z m19.911111 48.355555c-4.740741-4.740741-12.325926-8.533333-19.911111-8.533333s-15.17037 2.844444-19.911111 8.533333c-4.740741 4.740741-8.533333 12.325926-8.533334 19.911111s2.844444 15.17037 8.533334 19.911111c4.740741 4.740741 12.325926 8.533333 19.911111 8.533334s15.17037-2.844444 19.911111-8.533334c4.740741-4.740741 8.533333-12.325926 8.533333-19.911111s-2.844444-15.17037-8.533333-19.911111z m498.725926-48.355555c-18.962963 0-36.02963 7.585185-48.355556 19.911111-12.325926 12.325926-19.911111 29.392593-19.911111 48.355555 0 18.962963 7.585185 36.02963 19.911111 48.355556 12.325926 12.325926 29.392593 19.911111 48.355556 19.911111 18.962963 0 36.02963-7.585185 48.355555-19.911111 12.325926-12.325926 19.911111-29.392593 19.911112-48.355556 0-18.962963-7.585185-36.02963-19.911112-48.355555-12.325926-12.325926-29.392593-19.911111-48.355555-19.911111z m20.859259 48.355555c-4.740741-4.740741-12.325926-8.533333-19.911111-8.533333s-15.17037 2.844444-19.911111 8.533333c-4.740741 4.740741-8.533333 12.325926-8.533333 19.911111s2.844444 15.17037 8.533333 19.911111c4.740741 4.740741 12.325926 8.533333 19.911111 8.533334s15.17037-2.844444 19.911111-8.533334c4.740741-4.740741 8.533333-12.325926 8.533334-19.911111-0.948148-7.585185-3.792593-15.17037-8.533334-19.911111z m-68.266666-247.466667h-7.585186c-9.481481 0.948148-13.274074 6.637037-13.274074 14.222223v71.111111c0.948148 9.481481 7.585185 11.377778 15.170371 12.325926h34.133333l-28.444444-97.65926z" fill="#ff0000" p-id="5249"></path>
</svg>