<?xml version="1.0" standalone="no"?><!DOCTYPE svg PUBLIC "-//W3C//DTD SVG 1.1//EN" "http://www.w3.org/Graphics/SVG/1.1/DTD/svg11.dtd"><svg t="1708692264999" class="icon" viewBox="0 0 1024 1024" version="1.1" xmlns="http://www.w3.org/2000/svg" p-id="8290" width="128" height="128" xmlns:xlink="http://www.w3.org/1999/xlink"><path d="M810.7 383.94h-11.95c-18.34 0-34.56-11.95-40.53-29.01l-65.7-197.95c-5.97-17.07-22.18-29.01-40.53-29.01H165.67c-21.33 0-39.68 16.21-42.23 37.54L85.9 466.71c-0.43 1.71-0.43 3.41-0.43 5.12v253.4c0 23.46 19.2 42.66 42.66 42.66h44.8c-1.28 6.82-2.14 14.08-2.14 21.33 0 58.87 47.78 106.65 106.65 106.65s106.65-47.78 106.65-106.65c0-7.25-0.85-14.51-2.14-21.33h217.57c-1.28 6.82-2.14 14.08-2.14 21.33 0 58.87 47.78 106.65 106.65 106.65 58.87 0 106.65-47.78 106.65-106.65 0-7.25-0.85-14.51-2.14-21.33H896c23.47 0 42.66-19.2 42.66-42.66v-213.3c0.02-70.82-57.15-127.99-127.96-127.99z m-133.53-2.13c0.24 0.73 0.55 1.41 0.81 2.13H469.41V213.3h151.87l55.89 168.51zM384.09 213.3v170.64H182.17l21.47-170.64h180.45z m-85.32 575.92c0 11.94-9.38 21.33-21.33 21.33-11.95 0-21.33-9.39-21.33-21.33 0-11.95 9.38-21.33 21.33-21.33 11.95 0 21.33 9.38 21.33 21.33z m426.61 0c0 11.94-9.38 21.33-21.33 21.33-11.95 0-21.33-9.39-21.33-21.33 0-11.95 9.38-21.33 21.33-21.33 11.94 0 21.33 9.38 21.33 21.33z m127.98-106.65H170.79V474.38l0.64-5.12H810.7c23.47 0 42.66 19.2 42.66 42.66v42.66c-23.47 0-42.66 19.2-42.66 42.66s19.2 42.66 42.66 42.66v42.67z" fill="#ff0000" p-id="8291"></path></svg>